<svg id="ev6heLKd7nA1" xmlns="http://www.w3.org/2000/svg" xmlns:xlink="http://www.w3.org/1999/xlink" viewBox="0 0 430 932" shape-rendering="geometricPrecision" text-rendering="geometricPrecision"><defs><linearGradient id="ev6heLKd7nA2-fill" x1="0" y1="0" x2="430" y2="932" spreadMethod="pad" gradientUnits="userSpaceOnUse" gradientTransform="translate(0 0)"><stop id="ev6heLKd7nA2-fill-0" offset="0%" stop-color="#00a2e0"/><stop id="ev6heLKd7nA2-fill-1" offset="100%" stop-color="#30728c"/></linearGradient></defs><rect width="430" height="932" rx="30" ry="30" transform="matrix(1.156097 0.004128-.003895 1.090889-36.36965-63.512467)" fill="url(#ev6heLKd7nA2-fill)"/><g clip-path="url(#ev6heLKd7nA36)"><g><path d="M146,793c0,.707.281,1.385.781,1.886.5.5,1.178.781,1.886.781h18.666c.708,0,1.386-.281,1.886-.781.5-.501.781-1.179.781-1.886v-3.333h-24v3.333Z" fill="#138808"/><path d="M170,784.333v-3.333c0-.707-.281-1.385-.781-1.886-.5-.5-1.178-.781-1.886-.781h-18.666c-.708,0-1.386.281-1.886.781-.5.501-.781,1.179-.781,1.886v3.333h24Z" fill="#f93"/><path d="M146,784.111h24v5.778h-24v-5.778Z" fill="#f7f7f7"/><path d="M158,789.667c1.473,0,2.667-1.194,2.667-2.667s-1.194-2.667-2.667-2.667-2.667,1.194-2.667,2.667s1.194,2.667,2.667,2.667Z" fill="#000080"/><path d="M158,789.25c1.243,0,2.25-1.007,2.25-2.25s-1.007-2.25-2.25-2.25-2.25,1.007-2.25,2.25s1.007,2.25,2.25,2.25Z" fill="#f7f7f7"/><path d="M158.067,786.167L158,786.6l-.067-.433.067-1.3.067,1.3Zm-.619-1.228l.272,1.273.177.401-.048-.435-.401-1.239Zm-.515.214l.592,1.158.275.342-.159-.408-.708-1.092Zm-.442.338l.872.967.354.259-.259-.354-.967-.872Zm-.338.442l1.092.708.408.159-.342-.275-1.158-.592Zm-.214.515l1.239.401.435.048-.401-.177-1.273-.272Zm-.072.552l1.3.067.433-.067-.433-.067-1.3.067Zm.072.552l1.273-.272.401-.177-.435.048-1.239.401Zm.214.515l1.158-.592.342-.275-.408.159-1.092.708Zm.338.442l.967-.872.259-.354-.354.259-.872.967Zm.442.338l.708-1.092.159-.408-.275.342-.592,1.158Zm.515.214l.401-1.239.048-.435-.177.401-.272,1.273Zm.552.072l.067-1.3L158,787.4l-.067.433.067,1.3Zm.552-.072l-.272-1.273-.177-.401.048.435.401,1.239Zm.515-.214l-.592-1.158-.275-.342.159.408.708,1.092Zm.442-.338l-.872-.967-.354-.259.259.354.967.872Zm.338-.442l-1.092-.708-.408-.159.342.275l1.158.592Zm.214-.515l-1.239-.401-.435-.048.401.177l1.273.272Zm.072-.552l-1.3-.067-.433.067.433.067l1.3-.067Zm-.072-.552l-1.273.272-.401.177.435-.048l1.239-.401Zm-.214-.515l-1.158.592-.342.275.408-.159l1.092-.708Zm-.338-.442l-.967.872-.259.354.354-.259.872-.967Zm-.442-.338l-.708,1.092-.159.408.275-.342.592-1.158Zm-.515-.214l-.401,1.239-.048.435.177-.401.272-1.273Z" fill="#6666b3"/><path d="M157.707,784.906c.073,0,.133-.06.133-.133c0-.074-.06-.134-.133-.134-.074,0-.134.06-.134.134c0,.073.06.133.134.133Z" fill="#000080"/><path d="M157.14,785.058c.074,0,.133-.06.133-.133c0-.074-.059-.134-.133-.134s-.133.06-.133.134c0,.073.059.133.133.133Z" fill="#000080"/><path d="M156.632,785.351c.074,0,.133-.06.133-.134c0-.073-.059-.133-.133-.133s-.133.06-.133.133c0,.074.059.134.133.134Z" fill="#000080"/><path d="M156.217,785.765c.074,0,.134-.059.134-.133s-.06-.133-.134-.133c-.073,0-.133.059-.133.133s.06.133.133.133Z" fill="#000080"/><path d="M155.925,786.273c.073,0,.133-.059.133-.133s-.06-.133-.133-.133c-.074,0-.134.059-.134.133s.06.133.134.133Z" fill="#000080"/><path d="M155.773,786.84c.073,0,.133-.06.133-.133c0-.074-.06-.134-.133-.134-.074,0-.134.06-.134.134c0,.073.06.133.134.133Z" fill="#000080"/><path d="M155.773,787.427c.073,0,.133-.06.133-.134c0-.073-.06-.133-.133-.133-.074,0-.134.06-.134.133c0,.074.06.134.134.134Z" fill="#000080"/><path d="M155.925,787.993c.073,0,.133-.059.133-.133s-.06-.133-.133-.133c-.074,0-.134.059-.134.133s.06.133.134.133Z" fill="#000080"/><path d="M156.217,788.501c.074,0,.134-.059.134-.133s-.06-.133-.134-.133c-.073,0-.133.059-.133.133s.06.133.133.133Z" fill="#000080"/><path d="M156.632,788.916c.074,0,.133-.06.133-.133c0-.074-.059-.134-.133-.134s-.133.06-.133.134c0,.073.059.133.133.133Z" fill="#000080"/><path d="M157.14,789.209c.074,0,.133-.06.133-.134c0-.073-.059-.133-.133-.133s-.133.06-.133.133c0,.074.059.134.133.134Z" fill="#000080"/><path d="M157.707,789.361c.073,0,.133-.06.133-.134c0-.073-.06-.133-.133-.133-.074,0-.134.06-.134.133c0,.074.06.134.134.134Z" fill="#000080"/><path d="M158.293,789.361c.074,0,.134-.06.134-.134c0-.073-.06-.133-.134-.133-.073,0-.133.06-.133.133c0,.074.06.134.133.134Z" fill="#000080"/><path d="M158.86,789.209c.074,0,.133-.06.133-.134c0-.073-.059-.133-.133-.133s-.133.06-.133.133c0,.074.059.134.133.134Z" fill="#000080"/><path d="M159.368,788.916c.074,0,.133-.06.133-.133c0-.074-.059-.134-.133-.134s-.133.06-.133.134c0,.073.059.133.133.133Z" fill="#000080"/><path d="M159.783,788.501c.073,0,.133-.059.133-.133s-.06-.133-.133-.133c-.074,0-.134.059-.134.133s.06.133.134.133Z" fill="#000080"/><path d="M160.075,787.993c.074,0,.134-.059.134-.133s-.06-.133-.134-.133c-.073,0-.133.059-.133.133s.06.133.133.133Z" fill="#000080"/><path d="M160.227,787.427c.074,0,.134-.06.134-.134c0-.073-.06-.133-.134-.133-.073,0-.133.06-.133.133c0,.074.06.134.133.134Z" fill="#000080"/><path d="M160.227,786.84c.074,0,.134-.06.134-.133c0-.074-.06-.134-.134-.134-.073,0-.133.06-.133.134c0,.073.06.133.133.133Z" fill="#000080"/><path d="M160.075,786.273c.074,0,.134-.059.134-.133s-.06-.133-.134-.133c-.073,0-.133.059-.133.133s.06.133.133.133Z" fill="#000080"/><path d="M159.783,785.765c.073,0,.133-.059.133-.133s-.06-.133-.133-.133c-.074,0-.134.059-.134.133s.06.133.134.133Z" fill="#000080"/><path d="M159.368,785.351c.074,0,.133-.06.133-.134c0-.073-.059-.133-.133-.133s-.133.06-.133.133c0,.074.059.134.133.134Z" fill="#000080"/><path d="M158.86,785.058c.074,0,.133-.06.133-.133c0-.074-.059-.134-.133-.134s-.133.06-.133.134c0,.073.059.133.133.133Z" fill="#000080"/><path d="M158.293,784.906c.074,0,.134-.06.134-.133c0-.074-.06-.134-.134-.134-.073,0-.133.06-.133.134c0,.073.06.133.133.133Z" fill="#000080"/><path d="M158,787.6c.331,0,.6-.269.6-.6s-.269-.6-.6-.6-.6.269-.6.6.269.6.6.6Z" fill="#000080"/></g><clipPath id="ev6heLKd7nA36"><rect width="24" height="24" rx="0" ry="0" transform="translate(146 775)" fill="#fff"/></clipPath></g><path d="M182.075,781.364h2.131l3.705,9.045h.136l3.704-9.045h2.131v11.636h-1.67v-8.42h-.108l-3.432,8.403h-1.386l-3.432-8.409h-.108v8.426h-1.671v-11.636Zm16.763,11.829c-.553,0-1.053-.102-1.5-.307-.447-.208-.801-.509-1.062-.903-.258-.394-.387-.877-.387-1.449c0-.492.095-.898.284-1.216.19-.318.445-.57.767-.756.322-.185.682-.325,1.08-.42s.803-.167,1.216-.216c.523-.06.947-.11,1.273-.148.325-.041.562-.108.71-.198.147-.091.221-.239.221-.444v-.039c0-.497-.14-.881-.42-1.154-.277-.273-.69-.409-1.239-.409-.572,0-1.022.127-1.352.381-.326.25-.551.528-.676.835l-1.597-.364c.19-.53.466-.958.83-1.284.367-.329.79-.568,1.267-.716.477-.151.979-.227,1.506-.227.348,0,.717.042,1.107.125.394.08.762.227,1.103.443.344.216.627.525.846.926.22.398.33.915.33,1.552v5.795h-1.659v-1.193h-.068c-.11.22-.275.435-.495.648-.219.212-.502.388-.846.528-.345.14-.758.21-1.239.21Zm.369-1.363c.47,0,.872-.093,1.205-.279.337-.185.593-.428.767-.727.178-.303.267-.627.267-.972v-1.125c-.061.061-.178.118-.352.171-.171.049-.366.093-.585.13-.22.034-.434.067-.643.097-.208.027-.382.049-.522.068-.33.042-.631.112-.904.21-.269.099-.485.241-.647.427-.159.181-.239.424-.239.727c0,.42.155.738.466.954.31.212.706.319,1.187.319Zm9.468,1.34c-.705,0-1.334-.179-1.887-.539-.549-.364-.981-.881-1.295-1.551-.311-.675-.466-1.483-.466-2.427c0-.943.157-1.75.472-2.42.318-.671.753-1.184,1.306-1.54s1.18-.534,1.881-.534c.542,0,.977.091,1.307.273.333.178.591.386.773.625.185.238.329.449.431.631h.103v-4.324h1.699v11.636h-1.66v-1.358h-.142c-.102.186-.25.398-.443.636-.189.239-.45.447-.784.625-.333.178-.765.267-1.295.267Zm.375-1.448c.488,0,.901-.129,1.238-.387.341-.261.599-.623.773-1.085.178-.462.267-1,.267-1.614c0-.606-.087-1.136-.261-1.591-.174-.454-.43-.808-.767-1.062s-.754-.381-1.25-.381c-.512,0-.938.133-1.279.398s-.598.627-.772,1.085c-.171.459-.256.976-.256,1.551c0,.584.087,1.108.261,1.574.175.466.432.835.773,1.108.345.269.769.404,1.273.404Zm10.135,1.454c-.86,0-1.601-.184-2.222-.551-.617-.371-1.095-.892-1.432-1.563-.333-.674-.5-1.464-.5-2.369c0-.894.167-1.682.5-2.363.337-.682.807-1.214,1.409-1.597.606-.383,1.315-.574,2.125-.574.493,0,.97.082,1.432.244.462.163.877.419,1.244.767.368.349.658.802.87,1.358.212.553.318,1.226.318,2.017v.603h-6.938v-1.273h5.273c0-.447-.091-.843-.273-1.187-.181-.349-.437-.624-.767-.824-.325-.201-.708-.302-1.147-.302-.478,0-.894.118-1.25.353-.353.231-.625.534-.818.909-.19.371-.285.774-.285,1.21v.994c0,.584.103,1.08.307,1.489.209.409.498.722.87.938.371.212.804.318,1.301.318.322,0,.615-.046.88-.137.266-.094.495-.234.688-.42s.341-.415.443-.688l1.608.29c-.129.474-.36.888-.693,1.244-.33.353-.744.627-1.244.824-.497.194-1.063.29-1.699.29Zm11.755-11.812v11.636h-1.755v-11.636h1.755Zm4.12,6.454v5.182h-1.699v-8.727h1.63v1.42h.108c.201-.462.516-.833.944-1.113.431-.281.975-.421,1.63-.421.595,0,1.116.125,1.563.375.447.246.793.614,1.04,1.102.246.489.369,1.093.369,1.813v5.551h-1.699v-5.347c0-.632-.165-1.126-.494-1.483-.33-.359-.782-.539-1.358-.539-.394,0-.745.085-1.051.255-.303.171-.544.421-.722.75-.174.326-.261.72-.261,1.182Zm13.99-6.454v11.636h-1.756v-11.636h1.756Zm4.119,6.454v5.182h-1.699v-8.727h1.631v1.42h.108c.201-.462.515-.833.943-1.113.432-.281.975-.421,1.631-.421.594,0,1.115.125,1.562.375.447.246.794.614,1.04,1.102.246.489.369,1.093.369,1.813v5.551h-1.699v-5.347c0-.632-.164-1.126-.494-1.483-.329-.359-.782-.539-1.358-.539-.394,0-.744.085-1.051.255-.303.171-.544.421-.722.75-.174.326-.261.72-.261,1.182ZM264.3,793.17c-.705,0-1.334-.179-1.887-.539-.549-.364-.981-.881-1.295-1.551-.311-.675-.466-1.483-.466-2.427c0-.943.157-1.75.472-2.42.318-.671.753-1.184,1.306-1.54s1.18-.534,1.881-.534c.542,0,.977.091,1.307.273.333.178.591.386.773.625.185.238.329.449.431.631h.103v-4.324h1.699v11.636h-1.66v-1.358h-.142c-.102.186-.25.398-.443.636-.189.239-.45.447-.784.625-.333.178-.765.267-1.295.267Zm.375-1.448c.488,0,.901-.129,1.238-.387.341-.261.599-.623.773-1.085.178-.462.267-1,.267-1.614c0-.606-.087-1.136-.261-1.591-.174-.454-.43-.808-.767-1.062s-.754-.381-1.25-.381c-.512,0-.938.133-1.279.398s-.598.627-.772,1.085c-.171.459-.256.976-.256,1.551c0,.584.087,1.108.261,1.574.175.466.432.835.773,1.108.345.269.769.404,1.273.404ZM271.048,793v-8.727h1.699v8.727h-1.699Zm.858-10.074c-.295,0-.549-.098-.761-.295-.208-.201-.313-.44-.313-.716c0-.281.105-.519.313-.716.212-.201.466-.301.761-.301.296,0,.548.1.756.301.212.197.318.435.318.716c0,.276-.106.515-.318.716-.208.197-.46.295-.756.295Zm5.666,10.267c-.553,0-1.053-.102-1.5-.307-.447-.208-.801-.509-1.062-.903-.258-.394-.386-.877-.386-1.449c0-.492.094-.898.284-1.216.189-.318.445-.57.767-.756.322-.185.682-.325,1.079-.42.398-.095.803-.167,1.216-.216.523-.06.947-.11,1.273-.148.326-.041.562-.108.71-.198.148-.091.222-.239.222-.444v-.039c0-.497-.14-.881-.421-1.154-.276-.273-.689-.409-1.238-.409-.572,0-1.023.127-1.353.381-.325.25-.551.528-.676.835l-1.596-.364c.189-.53.466-.958.829-1.284.368-.329.79-.568,1.267-.716.477-.151.979-.227,1.506-.227.348,0,.718.042,1.108.125.394.08.761.227,1.102.443.345.216.627.525.847.926.219.398.329.915.329,1.552v5.795h-1.659v-1.193h-.068c-.11.22-.275.435-.494.648-.22.212-.502.388-.847.528s-.757.21-1.239.21Zm.37-1.363c.469,0,.871-.093,1.204-.279.337-.185.593-.428.767-.727.178-.303.267-.627.267-.972v-1.125c-.06.061-.178.118-.352.171-.17.049-.365.093-.585.13-.22.034-.434.067-.642.097-.208.027-.383.049-.523.068-.329.042-.631.112-.903.21-.269.099-.485.241-.648.427-.159.181-.239.424-.239.727c0,.42.156.738.466.954.311.212.707.319,1.188.319Z" fill="#fcfcfd"/><line x1="146.5" y1="807.5" x2="196" y2="807.5" fill="none" stroke="#fff" stroke-linecap="round"/><circle r="3.5" transform="translate(214.5 808)" fill="none" stroke="#fff"/><line x1="233" y1="807.5" x2="282.5" y2="807.5" fill="none" stroke="#fff" stroke-linecap="round"/><path d="M170.616,130v-11.636h4.364c.894,0,1.644.166,2.25.5.61.333,1.07.791,1.381,1.375.314.579.471,1.238.471,1.977c0,.746-.157,1.409-.471,1.989-.315.579-.779,1.036-1.392,1.369-.614.329-1.37.494-2.267.494h-2.892v-1.733h2.608c.522,0,.95-.091,1.284-.273.333-.181.579-.431.738-.75.163-.318.245-.683.245-1.096s-.082-.777-.245-1.091c-.159-.314-.407-.559-.744-.733-.333-.178-.763-.267-1.29-.267h-1.932v9.875h-2.108Zm13.888.17c-.852,0-1.591-.187-2.216-.562s-1.109-.9-1.454-1.574c-.341-.674-.512-1.462-.512-2.364c0-.901.171-1.691.512-2.369.345-.678.829-1.204,1.454-1.579s1.364-.563,2.216-.563c.853,0,1.591.188,2.216.563s1.108.901,1.449,1.579c.345.678.517,1.468.517,2.369c0,.902-.172,1.69-.517,2.364-.341.674-.824,1.199-1.449,1.574s-1.363.562-2.216.562Zm.012-1.647c.462,0,.848-.127,1.159-.381.31-.258.541-.602.693-1.034.155-.432.233-.913.233-1.443c0-.534-.078-1.017-.233-1.449-.152-.436-.383-.782-.693-1.04-.311-.257-.697-.386-1.159-.386-.474,0-.868.129-1.182.386-.311.258-.544.604-.699,1.04-.152.432-.227.915-.227,1.449c0,.53.075,1.011.227,1.443.155.432.388.776.699,1.034.314.254.708.381,1.182.381ZM191.983,130l-2.466-8.727h2.097l1.534,6.136h.079l1.568-6.136h2.074l1.569,6.102h.085l1.511-6.102h2.102L199.665,130h-2.142l-1.637-5.898h-.119L194.131,130h-2.148Zm15.203.17c-.875,0-1.631-.181-2.267-.545-.633-.367-1.119-.886-1.46-1.557-.341-.674-.512-1.468-.512-2.38c0-.898.171-1.686.512-2.364.345-.682.826-1.212,1.443-1.591.617-.383,1.343-.574,2.176-.574.538,0,1.046.087,1.523.261.481.171.905.436,1.273.796.371.36.662.818.875,1.375.212.553.318,1.212.318,1.977v.631h-7.154v-1.387h5.182c-.004-.393-.089-.744-.256-1.051-.166-.31-.399-.555-.698-.733-.296-.178-.641-.267-1.034-.267-.421,0-.79.103-1.108.307-.319.201-.567.466-.745.796-.174.325-.263.683-.267,1.074v1.21c0,.507.093.943.279,1.307.185.359.445.636.778.829.333.189.724.284,1.17.284.3,0,.571-.041.813-.125.242-.087.453-.214.631-.381.178-.166.312-.373.403-.619l1.921.216c-.122.508-.353.951-.694,1.33-.337.375-.769.666-1.295.875-.527.204-1.129.306-1.807.306Zm5.621-.17v-8.727h1.994v1.454h.091c.159-.504.432-.892.818-1.165.39-.276.835-.414,1.335-.414.114,0,.241.005.381.017.144.007.263.021.358.04v1.892c-.087-.031-.225-.057-.415-.08-.185-.026-.365-.04-.539-.04-.375,0-.713.082-1.012.245-.295.159-.528.38-.699.664-.17.284-.255.612-.255.983v5.131h-2.057Zm9.848.17c-.875,0-1.631-.181-2.267-.545-.633-.367-1.12-.886-1.46-1.557-.341-.674-.512-1.468-.512-2.38c0-.898.171-1.686.512-2.364.344-.682.825-1.212,1.443-1.591.617-.383,1.343-.574,2.176-.574.538,0,1.045.087,1.523.261.481.171.905.436,1.272.796.372.36.663.818.875,1.375.212.553.319,1.212.319,1.977v.631h-7.154v-1.387h5.182c-.004-.393-.089-.744-.256-1.051-.166-.31-.399-.555-.699-.733-.295-.178-.64-.267-1.034-.267-.42,0-.789.103-1.108.307-.318.201-.566.466-.744.796-.174.325-.263.683-.267,1.074v1.21c0,.507.093.943.278,1.307.186.359.445.636.779.829.333.189.723.284,1.17.284.299,0,.57-.041.813-.125.242-.087.452-.214.63-.381.178-.166.313-.373.404-.619l1.92.216c-.121.508-.352.951-.693,1.33-.337.375-.769.666-1.295.875-.527.204-1.129.306-1.807.306Zm8.859-.017c-.685,0-1.299-.176-1.841-.528-.541-.352-.969-.864-1.284-1.534-.314-.671-.471-1.485-.471-2.443c0-.97.159-1.788.477-2.455.322-.67.756-1.176,1.301-1.517.545-.345,1.153-.517,1.824-.517.511,0,.932.087,1.261.261.33.171.591.377.784.62.194.238.343.464.449.676h.085v-4.352h2.063v11.636h-2.023v-1.375h-.125c-.106.212-.259.437-.46.676-.201.235-.466.436-.795.602-.33.167-.745.25-1.245.25Zm.574-1.687c.436,0,.807-.118,1.114-.352.307-.239.539-.57.699-.995.159-.424.238-.918.238-1.483c0-.564-.079-1.055-.238-1.471-.156-.417-.387-.741-.694-.972-.303-.231-.676-.346-1.119-.346-.458,0-.841.119-1.148.358-.306.238-.538.568-.693.988-.155.421-.233.902-.233,1.443c0,.546.078,1.033.233,1.461.159.424.392.759.699,1.005.311.243.691.364,1.142.364ZM242.413,130v-11.636h4.455c.841,0,1.54.132,2.096.397.561.262.98.62,1.256,1.074.28.455.421.97.421,1.546c0,.473-.091.878-.273,1.216-.182.333-.426.604-.733.812s-.65.358-1.028.449v.114c.412.022.808.149,1.187.38.383.228.695.55.938.966.242.417.363.921.363,1.512c0,.602-.146,1.143-.437,1.625-.292.477-.731.854-1.319,1.13-.587.277-1.325.415-2.215.415h-4.711Zm2.108-1.761h2.267c.766,0,1.317-.146,1.654-.438.341-.295.511-.674.511-1.136c0-.345-.085-.656-.256-.932-.17-.28-.412-.5-.727-.659-.314-.163-.689-.244-1.125-.244h-2.324v3.409Zm0-4.927h2.086c.363,0,.691-.066.982-.198.292-.137.521-.328.688-.574.17-.25.256-.546.256-.887c0-.45-.159-.822-.478-1.113-.314-.292-.782-.438-1.403-.438h-2.131v3.21Zm9.595,9.961c-.28,0-.539-.023-.778-.068-.235-.042-.422-.091-.562-.148l.477-1.602c.299.087.566.128.801.125.235-.004.441-.078.619-.222.182-.14.336-.375.461-.705l.176-.471-3.165-8.909h2.182l2.011,6.591h.091l2.017-6.591h2.188l-3.495,9.784c-.163.462-.379.858-.648,1.187-.268.334-.598.587-.988.762-.387.178-.849.267-1.387.267Z" fill="#fff"/><path d="M204.867,157.566l4.919-8.283h9.836c0,1.035-1.477,8.18-9.836,13.46-9.837,6.212-6.558-2.071-4.919-5.177Z" fill="none" stroke="#fff" stroke-width="2"/><path d="M225.133,157.569l-4.919-8.286h-9.838c0,1.036,1.477,8.183,9.838,13.465c9.838,6.214,6.558-2.072,4.919-5.179Z" fill="none" stroke="#fff" stroke-width="2"/><path d="M213.475,144.106l1.821-2.301l1.822,2.301-1.822,2.301-1.821-2.301Z" fill="none" stroke="#fff"/><path d="M141.205,190v-17.455h11.556v3.043h-7.866v4.159h7.099v3.043h-7.099v7.21h-3.69Zm13.97,0v-13.091h3.631v13.091h-3.631Zm1.824-14.778c-.539,0-1.003-.179-1.389-.537-.381-.364-.571-.799-.571-1.304c0-.5.19-.929.571-1.287.386-.364.85-.546,1.389-.546.54,0,1,.182,1.381.546.386.358.58.787.58,1.287c0,.505-.194.94-.58,1.304-.381.358-.841.537-1.381.537ZM161.714,190v-13.091h3.52v2.284h.137c.238-.812.639-1.426,1.201-1.841.563-.42,1.211-.63,1.944-.63.181,0,.377.011.588.034.21.022.395.054.554.093v3.222c-.171-.051-.407-.097-.708-.136-.301-.04-.576-.06-.826-.06-.535,0-1.012.116-1.432.349-.415.228-.745.546-.989.955-.239.409-.358.881-.358,1.415v7.406h-3.631Zm20.713-9.358l-3.324.205c-.057-.285-.179-.54-.366-.767-.188-.233-.435-.418-.742-.554-.301-.142-.662-.214-1.082-.214-.563,0-1.037.12-1.424.358-.386.233-.579.546-.579.938c0,.312.125.577.375.793.25.215.679.389,1.287.519l2.369.478c1.273.261,2.222.682,2.847,1.261.625.58.937,1.341.937,2.284c0,.858-.253,1.611-.758,2.259-.5.647-1.188,1.153-2.063,1.517-.869.358-1.872.537-3.008.537-1.733,0-3.114-.361-4.142-1.083-1.023-.727-1.623-1.716-1.799-2.966l3.571-.187c.108.528.37.932.784,1.21.415.273.946.409,1.594.409.636,0,1.148-.122,1.534-.366.392-.25.591-.571.597-.963-.006-.33-.145-.6-.418-.81-.273-.216-.693-.381-1.261-.494l-2.267-.452c-1.279-.256-2.23-.699-2.855-1.33-.62-.63-.929-1.434-.929-2.412c0-.84.227-1.565.682-2.173.46-.608,1.105-1.077,1.934-1.406.835-.33,1.813-.494,2.932-.494c1.653,0,2.955.349,3.903,1.048.955.699,1.512,1.65,1.671,2.855Zm9.547-3.733v2.727h-7.883v-2.727h7.883Zm-6.093-3.136h3.63v12.204c0,.335.052.597.154.784.102.182.244.31.426.384.187.074.403.111.648.111.17,0,.341-.015.511-.043.17-.034.301-.06.392-.077l.571,2.702c-.182.057-.437.122-.767.196-.33.08-.73.128-1.202.145-.875.034-1.642-.082-2.301-.349-.653-.268-1.162-.682-1.525-1.245-.364-.562-.543-1.273-.537-2.13v-12.682Zm9.123-1.228h2.523l5.932,14.489h.204l5.932-14.489h2.523v17.455h-1.977v-13.261h-.171L204.516,190h-1.909l-5.455-13.261h-.17v13.261h-1.978v-17.455Zm26.568,17.728c-1.262,0-2.35-.279-3.264-.835-.91-.563-1.611-1.347-2.106-2.353-.488-1.011-.733-2.187-.733-3.528s.245-2.523.733-3.546c.495-1.028,1.182-1.829,2.063-2.403.886-.58,1.92-.869,3.102-.869.682,0,1.355.113,2.02.341.665.227,1.27.596,1.815,1.108.546.505.981,1.176,1.304,2.011.324.835.486,1.863.486,3.085v.852h-10.091v-1.738h8.046c0-.739-.148-1.398-.443-1.978-.29-.579-.705-1.036-1.245-1.372-.534-.335-1.165-.503-1.892-.503-.801,0-1.494.199-2.079.597-.58.392-1.026.903-1.338,1.534-.313.631-.469,1.307-.469,2.029v1.159c0,.988.17,1.826.511,2.514.347.682.827,1.202,1.441,1.56.613.352,1.326.528,2.139.528.528,0,1.005-.074,1.432-.222.431-.153.804-.38,1.116-.682.313-.306.554-.687.724-1.142l1.944.546c-.205.659-.549,1.239-1.032,1.739-.483.494-1.079.88-1.789,1.159-.711.272-1.509.409-2.395.409Zm8.48-.273v-13.091h1.943v1.977h.136c.239-.647.671-1.173,1.296-1.576.625-.404,1.329-.605,2.113-.605.148,0,.333.002.554.008.222.006.39.014.503.026v2.045c-.068-.017-.224-.043-.468-.077-.239-.039-.492-.059-.759-.059-.636,0-1.205.133-1.705.4-.494.262-.886.625-1.176,1.091-.284.46-.426.986-.426,1.577v8.284h-2.011Zm8.93,0v-13.091h2.011v13.091h-2.011Zm1.022-15.273c-.392,0-.73-.133-1.014-.4-.278-.267-.418-.588-.418-.963s.14-.696.418-.963c.284-.267.622-.401,1.014-.401s.728.134,1.006.401c.284.267.426.588.426.963s-.142.696-.426.963c-.278.267-.614.4-1.006.4Zm9.616,15.546c-1.091,0-2.054-.276-2.889-.827-.835-.557-1.489-1.341-1.96-2.352-.472-1.017-.708-2.219-.708-3.605c0-1.375.236-2.569.708-3.58.471-1.011,1.127-1.793,1.968-2.344s1.813-.826,2.915-.826c.852,0,1.526.142,2.02.426.5.278.881.596,1.142.954.267.353.474.642.622.87h.171v-6.444h2.011v17.455h-1.943v-2.011h-.239c-.148.238-.358.539-.63.903-.273.358-.662.679-1.168.963-.506.279-1.179.418-2.02.418Zm.273-1.807c.807,0,1.488-.21,2.045-.631.557-.426.98-1.014,1.27-1.764.29-.756.435-1.628.435-2.616c0-.978-.142-1.833-.426-2.566-.284-.738-.705-1.312-1.262-1.721-.557-.415-1.244-.623-2.062-.623-.853,0-1.563.219-2.131.657-.562.432-.986,1.02-1.27,1.764-.278.739-.417,1.568-.417,2.489c0,.931.142,1.778.426,2.539.289.756.716,1.358,1.278,1.807.568.443,1.273.665,2.114.665Zm9.69,1.534v-13.091h2.011v13.091h-2.011Zm1.023-15.273c-.392,0-.73-.133-1.014-.4-.279-.267-.418-.588-.418-.963s.139-.696.418-.963c.284-.267.622-.401,1.014-.401s.727.134,1.006.401c.284.267.426.588.426.963s-.142.696-.426.963c-.279.267-.614.4-1.006.4Zm8.525,15.58c-.83,0-1.583-.156-2.259-.469-.676-.318-1.213-.776-1.611-1.372-.397-.602-.596-1.33-.596-2.182c0-.75.148-1.358.443-1.824.295-.471.69-.841,1.185-1.108.494-.267,1.039-.466,1.636-.596.602-.137,1.207-.245,1.815-.324.796-.102,1.441-.179,1.935-.23.5-.057.864-.151,1.091-.282.233-.13.349-.358.349-.681v-.069c0-.84-.23-1.494-.69-1.96-.455-.466-1.145-.699-2.071-.699-.96,0-1.713.211-2.259.631-.545.42-.929.869-1.15,1.347l-1.909-.682c.341-.796.795-1.415,1.363-1.858.574-.449,1.199-.762,1.875-.938.682-.181,1.353-.272,2.012-.272.42,0,.903.051,1.449.153.551.097,1.082.298,1.593.605.517.307.946.77,1.287,1.389.341.62.512,1.449.512,2.489v8.625h-2.012v-1.773h-.102c-.136.284-.364.588-.682.912s-.741.6-1.27.827c-.528.227-1.173.341-1.934.341Zm.307-1.807c.795,0,1.465-.156,2.011-.469.551-.312.966-.716,1.244-1.21.284-.494.426-1.014.426-1.56v-1.841c-.085.103-.272.196-.562.282-.284.079-.614.15-.989.213-.369.057-.73.108-1.082.153-.347.04-.628.074-.844.102-.523.069-1.011.179-1.466.333-.449.148-.812.372-1.091.673-.272.296-.409.699-.409,1.21c0,.699.259,1.228.776,1.586.522.352,1.184.528,1.986.528Zm11.375-6.375v7.875h-2.011v-13.091h1.943v2.046h.17c.307-.665.773-1.199,1.398-1.603.625-.409,1.432-.613,2.421-.613.886,0,1.662.181,2.326.545.665.358,1.182.904,1.552,1.636.369.728.553,1.648.553,2.762v8.318h-2.011v-8.182c0-1.028-.267-1.829-.801-2.403-.534-.58-1.267-.87-2.199-.87-.642,0-1.216.14-1.721.418-.5.278-.895.685-1.185,1.219s-.435,1.182-.435,1.943Z" fill="#fff"/></svg>
